<?xml version="1.0" encoding="UTF-8" standalone="no"?>
<!-- Created with Inkscape (http://www.inkscape.org/) -->

<svg
   version="1.1"
   id="svg48"
   width="815.95978"
   height="724.03265"
   viewBox="0 0 815.95977 724.03265"
   sodipodi:docname="icon.svg"
   inkscape:version="1.2.2 (b0a8486541, 2022-12-01)"
   xmlns:inkscape="http://www.inkscape.org/namespaces/inkscape"
   xmlns:sodipodi="http://sodipodi.sourceforge.net/DTD/sodipodi-0.dtd"
   xmlns="http://www.w3.org/2000/svg"
   xmlns:svg="http://www.w3.org/2000/svg">
  <defs
     id="defs52" />
  <sodipodi:namedview
     id="namedview50"
     pagecolor="#ffffff"
     bordercolor="#000000"
     borderopacity="0.25"
     inkscape:showpageshadow="2"
     inkscape:pageopacity="0.0"
     inkscape:pagecheckerboard="0"
     inkscape:deskcolor="#d1d1d1"
     showgrid="false"
     inkscape:zoom="0.99359493"
     inkscape:cx="236.51489"
     inkscape:cy="413.64945"
     inkscape:window-width="1920"
     inkscape:window-height="1019"
     inkscape:window-x="0"
     inkscape:window-y="30"
     inkscape:window-maximized="1"
     inkscape:current-layer="svg48" />
  <path
     style="display:inline;opacity:1;fill:#1e3f61;fill-opacity:1;stroke:none;stroke-width:0.64"
     d="m 548.48001,712.51268 v 0.64 c 8.656,-0.1856 18.54464,-3.7568 26.88,-6.1312 15.00096,-4.2752 30.00064,-8.5632 44.80001,-13.4976 88.96,-29.6512 180.0832,-91.09248 194.0032,-190.9312 1.9648,-14.09024 2.4768,-28.0928 0.736,-42.24 -2.0672,-16.87616 -5.7984,-32.98176 -12.608,-48.64 -8.6656,-19.91872 -20.1728,-36.57728 -34.9888,-52.48 -18.4,-19.7536 -42.0608,-34.04352 -65.8624,-46.24512 -54.2912,-27.82784 -114.10113,-40.95424 -172.16001,-58.25344 -28.35968,-8.45056 -58.5952,-15.46496 -84.48,-30.272 -9.06688,-5.18656 -19.34336,-10.87168 -25.64672,-19.47008 -9.81504,-13.39008 -3.2448,-28.208 7.11168,-39.03936 18.91968,-19.78752 45.12512,-31.8048 70.37504,-41.32864 76.38464,-28.811523 160.51201,-39.650563 241.92001,-36.086403 25.5936,1.12128 50.6944,5.6448 76.16,7.65504 -5.5936,-5.41248 -18.2016,-7.01888 -25.6,-9.14624 -22.6816,-6.51968 -45.7472,-11.36768 -69.12,-14.7072 -61.7024,-8.81536 -123.96545,-7.66976 -185.60001,0.63296 -37.2576,5.01888 -75.02976,12.89728 -110.08,26.80512 -41.9456,16.643843 -97.09824,47.278083 -92.0512,100.095363 1.67616,17.53984 12.43904,32.60416 24.96896,44.36544 24.18816,22.704 56.96064,36.4256 87.56224,48.06592 73.61152,28.00192 153.89376,44.5248 220.16001,88.79552 46.4896,31.0592 77.1072,81.54752 65.92,138.77312 -3.5776,18.29184 -8.7744,35.15008 -17.12,51.84 -13.9072,27.808 -34.4704,52.07168 -57.76,72.4992 -31.83232,27.9232 -68.29441,51.968 -107.52001,68.3008"
     id="path376" />
  <path
     style="display:inline;opacity:1;fill:#54bfe6;fill-opacity:1;stroke:none;stroke-width:0.64"
     d="m 183.68,723.39268 h 127.36001 c 30.5248,0 61.13856,0.864 91.52,-2.0288 55.61792,-5.2928 110.592,-20.8384 158.08,-50.752 63.02145,-39.696 110.05441,-119.70176 73.44129,-192.9792 -14.39232,-28.80256 -38.77441,-48.1696 -65.76129,-64.60032 -6.7296,-4.09728 -13.86816,-7.63776 -21.12,-10.70656 -4.03648,-1.70752 -8.45376,-2.66368 -11.52,-5.97312 14.91456,4.71808 30.20032,7.8336 44.8,13.72992 37.16033,15.008 72.17921,38.8768 90.07361,75.87008 5.1648,10.67392 8.5696,22.928 10.752,34.56 3.7056,19.77984 -0.0448,37.33568 -0.9856,56.96 h 0.64 c 8.9344,-16.9792 17.312,-33.55648 21.4912,-52.48 7.232,-32.81536 0.8896,-68.0416 -20.096,-94.72064 -15.1168,-19.21728 -37.3184,-34.09088 -58.9952,-44.95744 -47.77345,-23.94816 -98.12801,-39.32736 -148.48001,-56.752 -41.25888,-14.27776 -84.24128,-28.8064 -120.32,-54.09024 -11.96224,-8.38336 -23.8016,-18.576 -32.36864,-30.43968 -6.19776,-8.58368 -11.98464,-17.86368 -14.89216,-28.16 -2.30656,-8.16704 -2.84544,-15.90016 -2.6752,-24.34496 1.27104,-63.0112 66.58496,-95.270403 117.776,-114.657923 10.49408,-3.9744 21.17888,-7.14432 32,-10.11008 28.9472,-7.93344 59.1072,-13.973376 88.96,-17.180864 14.42944,-1.550336 29.18208,-1.792192 43.52,-3.67456 13.72672,-1.802112 28.38912,-0.911616 42.24001,-0.911616 31.7248,0 63.3344,1.730944 94.72,6.575808 17.5616,2.711232 35.5072,8.625472 53.12,10.064192 -8.768,-6.627008 -24.6464,-9.310528 -35.2,-12.085952 -28.0832,-7.383488 -56.3264,-13.143168 -85.12,-16.894272 -56.01921,-7.2976 -112.87681,-5.995712 -168.96001,-0.568448 -69.21664,6.698176 -136.72,21.8112 -200.96,48.755712 C 232.24961,103.68644 168.32,146.33412 168.32,212.03268 c 0,9.02656 0.92736,17.45856 3.1328,26.24 8.16832,32.52352 33.01313,55.40288 59.58721,73.536 51.81888,35.35936 113.44576,51.18784 168.32,80.8512 37.07968,20.04416 81.20768,54.79424 76.6912,102.2528 -3.67424,38.61056 -31.9392,66.19712 -64.5312,84.07744 -51.38112,28.18816 -110.41536,40.67136 -160.64,70.80256 -20.72768,12.4352 -39.26912,26.4064 -53.68513,46.08 -5.536,7.552 -12.67968,17.952 -13.51488,27.52"
     id="path374" />
  <path
     style="display:inline;opacity:1;fill:#1e3f61;fill-opacity:1;stroke:none;stroke-width:0.64"
     d="m 0,724.03268 h 152.96 c 3.9072,-26.4576 25.96736,-53.6 45.44,-70.4 47.65761,-41.11168 108.06017,-55.82656 164.48001,-80.36864 31.952,-13.89888 80.50112,-35.79904 84.3712,-75.79136 4.04928,-41.84512 -32.62976,-67.20384 -65.1712,-85.2928 C 311.19617,372.777 220.57537,356.93316 168.0064,290.11268 c -7.55584,-9.60384 -13.35808,-20.16128 -18.1504,-31.36 -26.97792,-63.04448 7.9264,-128.21376 61.34401,-164.268803 103.1136,-69.597632 234.50048,-85.0815365 355.84,-87.2512005 -3.38944,-2.030464 -8.29568,-1.641792 -12.16,-2.028096 -7.89248,-0.789184 -15.8016,-1.170752 -23.68,-1.920576 -35.61216,-3.38937595 -71.75488,-4.04273275 -107.52,-2.47648635 C 345.06305,4.2503405 264.01857,14.265509 192.64,49.954661 151.37728,70.585637 113.60768,99.454117 90.791682,140.35268 c -7.29408,13.07456 -11.61984,27.29728 -15.72544,41.6 -5.26144,18.3296 -6.01728,38.064 -4.72384,56.96 1.57696,23.02272 6.50688,46.36672 16.85632,67.2 22.063998,44.41472 60.881278,77.87264 105.441278,98.9952 31.74977,15.05024 65.21281,25.21472 97.92001,37.84384 18.85568,7.28064 40.11328,14.17472 56.32,26.63488 6.79488,5.22432 14.47616,13.35424 12.46848,22.76608 -2.6784,12.55808 -16.83968,18.98752 -27.18848,24.16192 -27.87776,13.93856 -59.0752,20.92224 -88.96,29.22944 -74.50433,20.7104 -155.950088,47.66848 -206.471113,109.80864 -11.496832,14.144 -20.801985,28.9792 -28.5990408,45.44 -3.3282753,7.0272 -7.3470145,15.232 -8.1298562,23.04"
     id="path219" />
</svg>
